<svg version="1.1" id="Layer_1" xmlns="http://www.w3.org/2000/svg" xmlns:xlink="http://www.w3.org/1999/xlink" x="0px" y="0px" viewBox="0 0 40 40" style="enable-background:new 0 0 40 40;" xml:space="preserve" width="80" height="80">
<g>
	<path style="fill:#8BB7F0;" d="M1.516,30.5c0.283-4.455,4.316-8,9.234-8h6.5c4.918,0,8.952,3.545,9.234,8H1.516z"/>
	<g>
		<path style="fill:#4E7AB5;" d="M17.25,23c4.454,0,8.142,3.059,8.682,7H2.068c0.54-3.941,4.228-7,8.682-7H17.25 M17.25,22h-6.5&#10;&#9;&#9;&#9;C5.365,22,1,26.029,1,31h26C27,26.029,22.635,22,17.25,22L17.25,22z"/>
	</g>
</g>
<g>
	<path style="fill:#DEB974;" d="M14,24.5c-2.362,0-3.322-1.994-3.5-2.418v-4.255h7v4.255C17.322,22.506,16.362,24.5,14,24.5z"/>
	<g>
		<path style="fill:#967A44;" d="M17,18.328v3.649C16.775,22.463,15.913,24,14,24c-1.917,0-2.779-1.543-3-2.023v-3.649H17&#10;&#9;&#9;&#9; M18,17.328h-8v4.849c0,0,1.014,2.823,4,2.823s4-2.823,4-2.823V17.328L18,17.328z"/>
	</g>
</g>
<g>
	<g>
		<path style="fill:#DEB974;" d="M19.357,15.786c-0.906,0-1.643-0.737-1.643-1.644c0-0.905,0.737-1.643,1.643-1.643&#10;&#9;&#9;&#9;c1.518,0,1.643,0.439,1.643,0.929C21,14.415,20.172,15.786,19.357,15.786z M8.643,15.786C7.828,15.786,7,14.415,7,13.429&#10;&#9;&#9;&#9;C7,12.939,7.125,12.5,8.643,12.5c0.906,0,1.643,0.737,1.643,1.643C10.286,15.049,9.549,15.786,8.643,15.786z"/>
	</g>
	<g>
		<path style="fill:#967A44;" d="M19.357,13c1.143,0,1.143,0.218,1.143,0.429c0,0.82-0.709,1.857-1.143,1.857&#10;&#9;&#9;&#9;c-0.63,0-1.143-0.513-1.143-1.143C18.214,13.513,18.727,13,19.357,13 M8.643,13c0.63,0,1.143,0.513,1.143,1.143&#10;&#9;&#9;&#9;c0,0.63-0.513,1.143-1.143,1.143c-0.434,0-1.143-1.038-1.143-1.857C7.5,13.218,7.5,13,8.643,13 M19.357,12&#10;&#9;&#9;&#9;c-1.183,0-2.143,0.959-2.143,2.143s0.959,2.143,2.143,2.143s2.143-1.674,2.143-2.857C21.5,12.245,20.541,12,19.357,12L19.357,12z&#10;&#9;&#9;&#9; M8.643,12C7.459,12,6.5,12.245,6.5,13.429c0,1.183,0.959,2.857,2.143,2.857s2.143-0.959,2.143-2.143S9.826,12,8.643,12L8.643,12z&#10;&#9;&#9;&#9;"/>
	</g>
</g>
<g>
	<g>
		<path style="fill:#F5CE85;" d="M14,21.5c-0.517,0-1-0.212-1.36-0.597l-0.092-0.099l-0.129-0.038&#10;&#9;&#9;&#9;C10.111,20.074,8.5,17.909,8.5,15.5V8.526c0-1.301,1.059-2.359,2.359-2.359h6.281c1.301,0,2.359,1.059,2.359,2.359V15.5&#10;&#9;&#9;&#9;c0,2.409-1.611,4.574-3.918,5.267l-0.129,0.038l-0.092,0.099C15,21.288,14.517,21.5,14,21.5z"/>
	</g>
	<g>
		<path style="fill:#967A44;" d="M17.141,6.667c1.025,0,1.859,0.834,1.859,1.86V15.5c0,2.19-1.465,4.159-3.562,4.788l-0.258,0.078&#10;&#9;&#9;&#9;l-0.184,0.197C14.731,20.845,14.377,21,14,21s-0.731-0.155-0.995-0.438l-0.184-0.197l-0.258-0.078C10.465,19.659,9,17.69,9,15.5&#10;&#9;&#9;&#9;V8.526c0-1.025,0.834-1.86,1.859-1.86H17.141 M17.141,5.667h-6.281C9.28,5.667,8,6.947,8,8.526V15.5&#10;&#9;&#9;&#9;c0,2.714,1.803,5.004,4.275,5.745C12.707,21.707,13.318,22,14,22s1.293-0.293,1.725-0.755C18.197,20.504,20,18.214,20,15.5V8.526&#10;&#9;&#9;&#9;C20,6.947,18.72,5.667,17.141,5.667L17.141,5.667z"/>
	</g>
</g>
<g>
	<path style="fill:#A6714E;" d="M19.5,13.5v-2.723c0-3.105-1.65-3.967-1.721-4.002l-0.358-0.179l-0.253,0.311&#10;&#9;&#9;c-0.02,0.025-2.055,2.481-4.945,2.481c-0.239,0-0.472-0.008-0.697-0.016c-0.221-0.007-0.434-0.015-0.637-0.015&#10;&#9;&#9;c-1.181,0-2.388,0.274-2.388,2.309V13.5H8.295C7.94,12.826,7,10.832,7,8.623C7,4.296,9.748,1.5,14,1.5&#10;&#9;&#9;c2.718,0,3.989,2.374,4.001,2.398l0.119,0.228l0.254,0.036C20.116,4.411,21,6.039,21,9c0,2.001-0.932,3.862-1.287,4.5H19.5z"/>
	<g>
		<path style="fill:#7A4F34;" d="M14,2c2.386,0,3.514,2.047,3.558,2.129l0.237,0.454l0.507,0.073C19.761,4.865,20.5,6.327,20.5,9&#10;&#9;&#9;&#9;c0,0.955-0.23,1.885-0.5,2.646v-0.868c0-3.354-1.793-4.348-1.997-4.45l-0.716-0.355L16.78,6.591&#10;&#9;&#9;&#9;c-0.019,0.023-1.915,2.298-4.558,2.298c-0.233,0-0.461-0.008-0.681-0.015c-0.227-0.008-0.445-0.015-0.654-0.015&#10;&#9;&#9;&#9;c-0.702,0-2.812,0-2.886,2.663C7.731,10.698,7.5,9.685,7.5,8.623C7.5,4.6,10.051,2,14,2 M14,1C9.236,1,6.5,4.259,6.5,8.623&#10;&#9;&#9;&#9;C6.5,11.514,8,14,8,14h1c0,0,0-1.538,0-2.333c0-1.592,0.787-1.808,1.888-1.808c0.41,0,0.862,0.03,1.334,0.03&#10;&#9;&#9;&#9;c3.176,0,5.333-2.666,5.333-2.666S19,7.945,19,10.778C19,11.653,19,14,19,14h1c0,0,1.5-2.366,1.5-5&#10;&#9;&#9;&#9;c0-3.148-1.013-5.041-3.056-5.333C18.444,3.667,17.052,1,14,1L14,1z"/>
	</g>
</g>
<g>
	<path style="fill:#C2E8FF;" d="M9.512,38.5c0.268-5.559,4.982-10,10.738-10h7.5c5.756,0,10.47,4.441,10.738,10H9.512z"/>
	<g>
		<path style="fill:#7496C4;" d="M27.75,29c5.306,0,9.683,3.954,10.199,9H10.051c0.516-5.046,4.893-9,10.199-9H27.75 M27.75,28h-7.5&#10;&#9;&#9;&#9;C14.037,28,9,32.925,9,39h30C39,32.925,33.963,28,27.75,28L27.75,28z"/>
	</g>
</g>
<g>
	<path style="fill:#FFDEA3;" d="M24,31.5c-3.076,0-4.296-2.625-4.5-3.122v-5.469h9v5.469C28.296,28.875,27.076,31.5,24,31.5z"/>
	<g>
		<path style="fill:#967A44;" d="M28,23.41v4.865C27.737,28.865,26.607,31,24,31c-2.611,0-3.741-2.141-4-2.725V23.41H28 M29,22.41&#10;&#9;&#9;&#9;H19v6.062c0,0,1.267,3.529,5,3.529s5-3.529,5-3.529V22.41L29,22.41z"/>
	</g>
</g>
<g>
	<g>
		<path style="fill:#FFDEA3;" d="M30.429,20.643c-1.143,0-2.072-0.929-2.072-2.071s0.929-2.071,2.072-2.071&#10;&#9;&#9;&#9;c1.725,0,2.071,0.465,2.071,1.214C32.5,18.966,31.476,20.643,30.429,20.643z M17.571,20.643c-1.047,0-2.071-1.677-2.071-2.929&#10;&#9;&#9;&#9;c0-0.749,0.347-1.214,2.071-1.214c1.143,0,2.072,0.929,2.072,2.071S18.714,20.643,17.571,20.643z"/>
	</g>
	<g>
		<path style="fill:#967A44;" d="M30.429,17C32,17,32,17.363,32,17.714c0,1.044-0.896,2.429-1.571,2.429&#10;&#9;&#9;&#9;c-0.867,0-1.571-0.705-1.571-1.571S29.562,17,30.429,17 M17.571,17c0.867,0,1.571,0.705,1.571,1.571s-0.705,1.571-1.571,1.571&#10;&#9;&#9;&#9;c-0.676,0-1.571-1.385-1.571-2.429C16,17.363,16,17,17.571,17 M30.429,16c-1.42,0-2.571,1.151-2.571,2.571&#10;&#9;&#9;&#9;s1.151,2.571,2.571,2.571S33,19.134,33,17.714S31.849,16,30.429,16L30.429,16z M17.571,16C16.151,16,15,16.294,15,17.714&#10;&#9;&#9;&#9;s1.151,3.429,2.571,3.429s2.571-1.151,2.571-2.571S18.992,16,17.571,16L17.571,16z"/>
	</g>
</g>
<g>
	<g>
		<path style="fill:#FFDEA3;" d="M24,27.5c-0.581,0-1.134-0.224-1.56-0.631l-0.09-0.086l-0.12-0.034&#10;&#9;&#9;&#9;c-2.785-0.786-4.73-3.356-4.73-6.249v-8.136c0-1.564,1.272-2.837,2.836-2.837h7.328c1.564,0,2.836,1.272,2.836,2.837V20.5&#10;&#9;&#9;&#9;c0,2.893-1.945,5.463-4.73,6.249l-0.12,0.034l-0.09,0.086C25.134,27.276,24.581,27.5,24,27.5z"/>
	</g>
	<g>
		<path style="fill:#967A44;" d="M27.664,10.028c1.288,0,2.336,1.048,2.336,2.336V20.5c0,2.67-1.796,5.042-4.367,5.768l-0.239,0.068&#10;&#9;&#9;&#9;l-0.18,0.172C24.882,26.825,24.451,27,24,27s-0.882-0.175-1.214-0.492l-0.18-0.172l-0.239-0.068C19.796,25.542,18,23.17,18,20.5&#10;&#9;&#9;&#9;v-8.136c0-1.288,1.048-2.336,2.336-2.336H27.664 M27.664,9.028h-7.328c-1.842,0-3.336,1.494-3.336,3.336V20.5&#10;&#9;&#9;&#9;c0,3.205,2.156,5.9,5.095,6.731C22.591,27.705,23.26,28,24,28s1.409-0.295,1.905-0.769C28.844,26.4,31,23.705,31,20.5v-8.136&#10;&#9;&#9;&#9;C31,10.521,29.506,9.028,27.664,9.028L27.664,9.028z"/>
	</g>
</g>
<g>
	<path style="fill:#F5CE85;" d="M30.5,18.5V15c0-3.484-2.217-4.425-2.312-4.463l-0.342-0.14l-0.234,0.287&#10;&#9;&#9;C27.589,10.713,25.283,13.5,22,13.5c-0.264,0-0.53-0.009-0.791-0.017c-0.265-0.009-0.526-0.017-0.778-0.017&#10;&#9;&#9;c-0.877,0-2.931,0-2.931,2.533v2.5h-0.214c-0.44-0.773-1.786-3.349-1.786-5.924C15.5,7.821,18.995,4.5,24,4.5&#10;&#9;&#9;c3.078,0,4.499,2.621,4.557,2.732l0.119,0.226l0.253,0.037C30.462,7.715,32.5,8.524,32.5,13c0,2.334-1.337,4.763-1.778,5.5H30.5z"/>
	<g>
		<path style="fill:#967A44;" d="M24,5c2.762,0,4.062,2.367,4.114,2.463l0.237,0.454l0.507,0.073C30.321,8.199,32,8.958,32,13&#10;&#9;&#9;&#9;c0,1.395-0.515,2.842-1,3.894V15c0-3.816-2.516-4.883-2.623-4.926l-0.687-0.279l-0.467,0.577C27.201,10.397,25.06,13,22,13&#10;&#9;&#9;&#9;c-0.259,0-0.519-0.008-0.775-0.017c-0.27-0.009-0.536-0.017-0.794-0.017c-0.849,0-3.431,0-3.431,3.034v0.807&#10;&#9;&#9;&#9;c-0.486-1.122-1-2.677-1-4.23C16,8.115,19.29,5,24,5 M24,4c-5.36,0-9,3.667-9,8.576C15,15.828,17,19,17,19h1c0,0,0-2.105,0-3&#10;&#9;&#9;&#9;c0-1.791,1.085-2.034,2.431-2.034C20.932,13.966,21.469,14,22,14c3.573,0,6-3,6-3s2,0.813,2,4c0,0.984,0,4,0,4h1c0,0,2-3.037,2-6&#10;&#9;&#9;&#9;c0-4.161-1.703-5.671-4-6C29,7,27.434,4,24,4L24,4z"/>
	</g>
</g>
</svg>