<svg version="1.1" id="Layer_1" xmlns="http://www.w3.org/2000/svg" xmlns:xlink="http://www.w3.org/1999/xlink" x="0px" y="0px" viewBox="0 0 40 40" style="enable-background:new 0 0 40 40;" xml:space="preserve" width="80" height="80">
<g>
	<g>
		<path style="fill:#FFEEA3;" d="M7,38.5c-1.93,0-3.5-1.57-3.5-3.5V6c0-2.042,0.583-3.818,0.839-4.5h24.318&#10;&#9;&#9;&#9;C28.914,2.2,29.5,4.02,29.5,6v3.5H32c3.033,0,5.5,2.467,5.5,5.5v10c0,3.033-2.467,5.5-5.5,5.5h-2.5V35c0,1.93-1.57,3.5-3.5,3.5H7z&#10;&#9;&#9;&#9; M29.5,27.5H32c1.378,0,2.5-1.122,2.5-2.5V15c0-1.378-1.122-2.5-2.5-2.5h-2.5V27.5z"/>
	</g>
	<g>
		<path style="fill:#BA9B48;" d="M28.303,2C28.575,2.815,29,4.352,29,6v3v1h1h2c2.757,0,5,2.243,5,5v10c0,2.757-2.243,5-5,5h-2h-1v1&#10;&#9;&#9;&#9;v4c0,1.654-1.346,3-3,3H7c-1.654,0-3-1.346-3-3V6c0-1.696,0.42-3.205,0.691-4H28.303 M29,28h1h2c1.654,0,3-1.346,3-3V15&#10;&#9;&#9;&#9;c0-1.654-1.346-3-3-3h-2h-1v1v14V28 M29,1H4c0,0-1,2.25-1,5v29c0,2.209,1.791,4,4,4h19c2.209,0,4-1.791,4-4v-4h2&#10;&#9;&#9;&#9;c3.314,0,6-2.686,6-6V15c0-3.314-2.686-6-6-6h-2V6C30,3.338,29,1,29,1L29,1z M30,27V13h2c1.105,0,2,0.895,2,2v10&#10;&#9;&#9;&#9;c0,1.105-0.895,2-2,2H30L30,27z"/>
	</g>
</g>
<g>
	<g>
		<path style="fill:#F5CE85;" d="M4,8v27h25V8H4z"/>
	</g>
</g>
<circle style="fill:none;stroke:#FFEEA3;stroke-miterlimit:10;" cx="19.286" cy="33.571" r="2.036"/>
<circle style="fill:none;stroke:#FFEEA3;stroke-miterlimit:10;" cx="19.286" cy="9.143" r="2.036"/>
<circle style="fill:none;stroke:#FFEEA3;stroke-miterlimit:10;" cx="19.286" cy="17.286" r="2.036"/>
<circle style="fill:none;stroke:#FFEEA3;stroke-miterlimit:10;" cx="19.286" cy="25.429" r="2.036"/>
<circle style="fill:none;stroke:#FFEEA3;stroke-miterlimit:10;" cx="8.429" cy="33.571" r="2.036"/>
<circle style="fill:none;stroke:#FFEEA3;stroke-miterlimit:10;" cx="8.429" cy="9.143" r="2.036"/>
<circle style="fill:none;stroke:#FFEEA3;stroke-miterlimit:10;" cx="8.429" cy="17.286" r="2.036"/>
<circle style="fill:none;stroke:#FFEEA3;stroke-miterlimit:10;" cx="8.429" cy="25.429" r="2.036"/>
<circle style="fill:none;stroke:#FFEEA3;stroke-miterlimit:10;" cx="13.857" cy="13.214" r="2.036"/>
<circle style="fill:none;stroke:#FFEEA3;stroke-miterlimit:10;" cx="13.857" cy="21.357" r="2.036"/>
<circle style="fill:none;stroke:#FFEEA3;stroke-miterlimit:10;" cx="13.857" cy="29.5" r="2.036"/>
<circle style="fill:none;stroke:#FFEEA3;stroke-miterlimit:10;" cx="24.714" cy="13.214" r="2.036"/>
<circle style="fill:none;stroke:#FFEEA3;stroke-miterlimit:10;" cx="24.714" cy="21.357" r="2.036"/>
<circle style="fill:none;stroke:#FFEEA3;stroke-miterlimit:10;" cx="24.714" cy="29.5" r="2.036"/>
<path style="fill:none;stroke:#F7FCFF;stroke-linecap:round;stroke-miterlimit:10;" d="M10.464,31.536c0-8.466,0-24.429,0-24.429"/>
</svg>