<svg version="1.1" id="Layer_1" xmlns="http://www.w3.org/2000/svg" xmlns:xlink="http://www.w3.org/1999/xlink" x="0px" y="0px" viewBox="0 0 40 40" style="enable-background:new 0 0 40 40;" xml:space="preserve" width="80" height="80">
<g>
	<path style="fill:#DCD5F2;" d="M7,35.5c-0.827,0-1.5-0.673-1.5-1.5v-7c0-0.827,0.673-1.5,1.5-1.5h26c0.827,0,1.5,0.673,1.5,1.5v7&#10;&#9;&#9;c0,0.827-0.673,1.5-1.5,1.5H7z"/>
	<path style="fill:#8B75A1;" d="M33,26c0.551,0,1,0.449,1,1v7c0,0.551-0.449,1-1,1H7c-0.551,0-1-0.449-1-1v-7c0-0.551,0.449-1,1-1&#10;&#9;&#9;H33 M33,25H7c-1.105,0-2,0.895-2,2v7c0,1.105,0.895,2,2,2h26c1.105,0,2-0.895,2-2v-7C35,25.895,34.105,25,33,25L33,25z"/>
</g>
<g>
	<path style="fill:#DCD5F2;" d="M7,25.5c-0.827,0-1.5-0.673-1.5-1.5v-8c0-0.827,0.673-1.5,1.5-1.5h26c0.827,0,1.5,0.673,1.5,1.5v8&#10;&#9;&#9;c0,0.827-0.673,1.5-1.5,1.5H7z"/>
	<path style="fill:#8B75A1;" d="M33,15c0.551,0,1,0.449,1,1v8c0,0.551-0.449,1-1,1H7c-0.551,0-1-0.449-1-1v-8c0-0.551,0.449-1,1-1&#10;&#9;&#9;H33 M33,14H7c-1.105,0-2,0.895-2,2v8c0,1.105,0.895,2,2,2h26c1.105,0,2-0.895,2-2v-8C35,14.895,34.105,14,33,14L33,14z"/>
</g>
<g>
	<path style="fill:#DCD5F2;" d="M7,14.5c-0.827,0-1.5-0.673-1.5-1.5V6c0-0.827,0.673-1.5,1.5-1.5h26c0.827,0,1.5,0.673,1.5,1.5v7&#10;&#9;&#9;c0,0.827-0.673,1.5-1.5,1.5H7z"/>
	<path style="fill:#8B75A1;" d="M33,5c0.551,0,1,0.449,1,1v7c0,0.551-0.449,1-1,1H7c-0.551,0-1-0.449-1-1V6c0-0.551,0.449-1,1-1H33&#10;&#9;&#9; M33,4H7C5.895,4,5,4.895,5,6v7c0,1.105,0.895,2,2,2h26c1.105,0,2-0.895,2-2V6C35,4.895,34.105,4,33,4L33,4z"/>
</g>
<g>
	<rect x="17.5" y="1.5" style="fill:#DCD5F2;" width="5" height="3"/>
	<path style="fill:#8B75A1;" d="M22,2v2h-4V2H22 M23,1h-6v4h6V1L23,1z"/>
</g>
<g>
	
		<line style="fill:none;stroke:#8B75A1;stroke-linecap:round;stroke-linejoin:round;stroke-miterlimit:10;" x1="17" y1="1.5" x2="23" y2="1.5"/>
</g>
<g>
	
		<line style="fill:none;stroke:#8B75A1;stroke-width:2;stroke-linecap:round;stroke-linejoin:round;stroke-miterlimit:10;" x1="17" y1="8" x2="23" y2="8"/>
</g>
<g>
	<path style="fill:#DCD5F2;" d="M7,38.5c-0.827,0-1.5-0.673-1.5-1.5s0.673-1.5,1.5-1.5h26c0.827,0,1.5,0.673,1.5,1.5&#10;&#9;&#9;s-0.673,1.5-1.5,1.5H7z"/>
	<path style="fill:#8B75A1;" d="M33,36c0.551,0,1,0.449,1,1s-0.449,1-1,1H7c-0.551,0-1-0.449-1-1s0.449-1,1-1H33 M33,35H7&#10;&#9;&#9;c-1.105,0-2,0.895-2,2s0.895,2,2,2h26c1.105,0,2-0.895,2-2S34.105,35,33,35L33,35z"/>
</g>
<g>
	<rect x="9" y="6" style="fill-rule:evenodd;clip-rule:evenodd;fill:#DCD5F2;" width="4" height="31"/>
</g>
</svg>