<svg version="1.1" id="Layer_1" xmlns="http://www.w3.org/2000/svg" xmlns:xlink="http://www.w3.org/1999/xlink" x="0px" y="0px" viewBox="0 0 40 40" style="enable-background:new 0 0 40 40;" xml:space="preserve" width="80" height="80">
<g>
	<path style="fill:#B0C1D4;" d="M3,38.5c-0.827,0-1.5-0.673-1.5-1.5v-6L2.754,7.919C2.797,7.123,3.455,6.5,4.252,6.5h31.496&#10;&#9;&#9;c0.797,0,1.455,0.623,1.498,1.419l1.255,23.108L38.5,37c0,0.827-0.673,1.5-1.5,1.5H3z"/>
	<g>
		<path style="fill:#66798F;" d="M35.748,7c0.531,0,0.97,0.415,0.999,0.946L38,31.027V37c0,0.551-0.449,1-1,1H3&#10;&#9;&#9;&#9;c-0.551,0-1-0.449-1-1v-5.973L3.253,7.946C3.282,7.415,3.72,7,4.252,7H35.748 M35.748,6H4.252C3.189,6,2.312,6.831,2.254,7.892&#10;&#9;&#9;&#9;L1,31v6c0,1.105,0.895,2,2,2h34c1.105,0,2-0.895,2-2v-6L37.746,7.892C37.688,6.831,36.811,6,35.748,6L35.748,6z"/>
	</g>
</g>
<path style="fill:#D6E3ED;" d="M2,31L3.253,7.946C3.282,7.415,3.72,7,4.252,7h31.497c0.531,0,0.97,0.415,0.999,0.946L38,31H2z"/>
<g>
	<rect x="27.5" y="9.5" style="fill:#B0C1D4;" width="5" height="4"/>
	<path style="fill:#66798F;" d="M32,10v3h-4v-3H32 M33,9h-6v5h6V9L33,9z"/>
</g>
<g>
	<path style="fill:#BAE0BD;" d="M23,10.5c-0.827,0-1.5-0.673-1.5-1.5V3c0-0.827,0.673-1.5,1.5-1.5h14c0.827,0,1.5,0.673,1.5,1.5v6&#10;&#9;&#9;c0,0.827-0.673,1.5-1.5,1.5H23z"/>
	<g>
		<path style="fill:#5E9C76;" d="M37,2c0.551,0,1,0.449,1,1v6c0,0.551-0.449,1-1,1H23c-0.551,0-1-0.449-1-1V3c0-0.551,0.449-1,1-1&#10;&#9;&#9;&#9;H37 M37,1H23c-1.105,0-2,0.895-2,2v6c0,1.105,0.895,2,2,2h14c1.105,0,2-0.895,2-2V3C39,1.895,38.105,1,37,1L37,1z"/>
	</g>
</g>
<rect x="28" y="11" style="fill:#B0C1D4;" width="4" height="3"/>
<rect x="6" y="20" style="fill:#FFFFFF;" width="3" height="3"/>
<rect x="12" y="20" style="fill:#FFFFFF;" width="3" height="3"/>
<rect x="18" y="20" style="fill:#FFFFFF;" width="3" height="3"/>
<rect x="24" y="20" style="fill:#FFFFFF;" width="3" height="3"/>
<rect x="6" y="25" style="fill:#FFFFFF;" width="3" height="3"/>
<rect x="12" y="25" style="fill:#FFFFFF;" width="3" height="3"/>
<rect x="18" y="25" style="fill:#FFFFFF;" width="3" height="3"/>
<rect x="24" y="25" style="fill:#FFFFFF;" width="3" height="3"/>
<rect x="31" y="25" style="fill:#8BB7F0;" width="3" height="3"/>
<rect x="31" y="20" style="fill:#F78F8F;" width="3" height="3"/>
<circle style="fill:#66798F;" cx="20" cy="34.929" r="1.357"/>
<g>
	<rect x="6.5" y="1.5" style="fill:#FFFFFF;" width="12" height="15"/>
	<path style="fill:#788B9C;" d="M18,2v14H7V2H18 M19,1H6v16h13V1L19,1z"/>
</g>
<rect x="7" y="14" style="fill:#D6E3ED;" width="11" height="2"/>
<path style="fill:#66798F;" d="M18,14v2H7v-2H5.5C4.672,14,4,14.672,4,15.5v0C4,16.328,4.672,17,5.5,17h14&#10;&#9;c0.828,0,1.5-0.672,1.5-1.5v0c0-0.828-0.672-1.5-1.5-1.5H18z"/>
<rect x="35" y="7" style="fill:#5E9C76;" width="1" height="1"/>
<rect x="33" y="7" style="fill:#5E9C76;" width="1" height="1"/>
<rect x="31" y="7" style="fill:#5E9C76;" width="1" height="1"/>
</svg>