<svg version="1.1" id="Layer_1" xmlns="http://www.w3.org/2000/svg" xmlns:xlink="http://www.w3.org/1999/xlink" x="0px" y="0px" viewBox="0 0 40 40" style="enable-background:new 0 0 40 40;" xml:space="preserve" width="80" height="80">
<g>
	<path style="fill:#BAE0BD;" d="M12.911,25.5L9.845,7.83l28.522,3.852L34.9,24.395c-0.178,0.65-0.772,1.105-1.447,1.105H12.911z"/>
	<path style="fill:#5E9C76;" d="M10.454,8.417l27.281,3.684l-3.317,12.162C34.3,24.697,33.903,25,33.453,25H13.331L10.454,8.417&#10;&#9;&#9; M9.235,7.243L12.49,26h20.963c0.902,0,1.692-0.604,1.93-1.474L39,11.263L9.235,7.243L9.235,7.243z"/>
</g>
<path style="fill:none;stroke:#66798F;stroke-miterlimit:10;" d="M3,1.5h2.119c2.093,0,3.882,1.505,4.241,3.567l4.498,25.866&#10;&#9;c0.359,2.062,2.148,3.567,4.241,3.567H35"/>
<g>
	<circle style="fill:#BAE0BD;" cx="3" cy="3" r="1.5"/>
	<path style="fill:#5E9C76;" d="M3,2c0.551,0,1,0.449,1,1S3.551,4,3,4S2,3.551,2,3S2.449,2,3,2 M3,1C1.895,1,1,1.895,1,3&#10;&#9;&#9;s0.895,2,2,2s2-0.895,2-2S4.105,1,3,1L3,1z"/>
</g>
<g>
	<circle style="fill:#B0C1D4;" cx="31.5" cy="36.5" r="2"/>
	<path style="fill:#66798F;" d="M31.5,35c0.827,0,1.5,0.673,1.5,1.5S32.327,38,31.5,38S30,37.327,30,36.5S30.673,35,31.5,35&#10;&#9;&#9; M31.5,34c-1.381,0-2.5,1.119-2.5,2.5s1.119,2.5,2.5,2.5s2.5-1.119,2.5-2.5S32.881,34,31.5,34L31.5,34z"/>
</g>
<g>
	<circle style="fill:#B0C1D4;" cx="18.5" cy="36.5" r="2"/>
	<path style="fill:#66798F;" d="M18.5,35c0.827,0,1.5,0.673,1.5,1.5S19.327,38,18.5,38S17,37.327,17,36.5S17.673,35,18.5,35&#10;&#9;&#9; M18.5,34c-1.381,0-2.5,1.119-2.5,2.5s1.119,2.5,2.5,2.5s2.5-1.119,2.5-2.5S19.881,34,18.5,34L18.5,34z"/>
</g>
<line style="fill:#BAE0BD;stroke:#5E9C76;stroke-miterlimit:10;" x1="18.5" y1="22" x2="18.5" y2="14"/>
<line style="fill:#BAE0BD;stroke:#5E9C76;stroke-miterlimit:10;" x1="22.5" y1="22" x2="22.5" y2="14"/>
<line style="fill:#BAE0BD;stroke:#5E9C76;stroke-miterlimit:10;" x1="26.5" y1="22" x2="26.5" y2="14"/>
<line style="fill:#BAE0BD;stroke:#5E9C76;stroke-miterlimit:10;" x1="30.5" y1="22" x2="30.5" y2="14"/>
</svg>